<?xml version="1.0" encoding="UTF-8"?>
<svg id="Layer_1" data-name="Layer 1" xmlns="http://www.w3.org/2000/svg" viewBox="30 28 300 300">
  <defs>
    <style>
      .cls-1 {
        fill: #cfc0a3;
      }
    </style>
  </defs>
  <g>
    <path class="cls-1" d="M183.76,33.11c-80.68,0-146.33,65.64-146.33,146.33s65.64,146.33,146.33,146.33,146.33-65.64,146.33-146.33S264.44,33.11,183.76,33.11ZM183.76,317.17c-76.07,0-137.74-61.67-137.74-137.74S107.69,41.7,183.76,41.7s137.74,61.67,137.74,137.74-61.67,137.74-137.74,137.74Z"/>
    <path class="cls-1" d="M139.21,180.97c.15-.3.4-.8.5-1.05l6.1-14.79,6,14.94c.1.25.3.65.45,1l-.75.15c-1.7.45-3.6.75-5.55.75s-3.75-.25-5.65-.75c-.35-.1-.85-.25-1.1-.25ZM77.2,158.44c6.8,0,11.59,1.4,14.59,4.05,3.6,3.15,5.4,7.3,5.4,12.49s-1.75,9.04-5.2,12.24c-3,2.85-7.89,4.35-14.79,4.35h-2.2v-33.13h2.2ZM287.08,162.68c3.4,3.3,5.05,7.45,5.05,12.29s-1.7,8.9-5.05,12.29c-3.35,3.35-7.4,5.05-12.14,5.05-9.55,0-17.14-7.85-17.14-17.34,0-4.8,1.7-8.95,5.05-12.34,3.3-3.35,7.39-5,12.09-5s8.74,1.7,12.14,5.05ZM206.57,165.58l6.05-5.2c-5.2-6.95-12.14-10.39-20.34-10.39-13.94,0-25.19,11.14-25.19,25.09s11.19,24.89,24.84,24.89c3.45,0,6.74-.75,9.94-2.2,3.1-1.4,5.8-3.35,8-5.9,2.1-2.35,3.45-5.05,4.25-8,.65-2.45,1.05-5.45.85-9.05l-.1-1.45h-21.79v7.65h13.39c-.35,3-1.9,5.6-4.6,7.75-2.95,2.4-6.3,3.55-10.04,3.55-4.35,0-8.25-1.8-11.84-5.35-3.25-3.3-4.9-7.25-4.9-11.84,0-4.85,1.7-9.05,5.2-12.54,3.3-3.35,7.29-4.95,11.89-4.95,5.9,0,10.54,2.7,14.39,7.95ZM155.35,188.62l4.45,10.59h8.79l-20.64-48.57h-4l-21.19,48.57h8.75l4.65-10.79c.1-.3.15-.5.2-.7.2.1.5.2.85.35,2.6,1,5.7,1.55,8.74,1.55s5.95-.6,7.7-1.2c.9-.3,1.2-.45,1.45-.6.05.2.2.65.25.8ZM76.95,199.21c8.9,0,15.74-2,20.34-6.15,5.25-4.7,7.9-10.69,7.9-18.04s-2.7-13.79-8.1-18.39c-4.55-3.9-11.29-5.85-20.04-5.85h-10.34v48.42h10.24ZM111.68,150.79v48.42h7.95v-48.42h-7.95ZM228.11,176.63h16.94v-7.6h-16.94v-10.59h18.44v-7.65h-26.39v48.42h26.44v-7.65h-18.49v-14.94ZM257.2,157.34c-4.95,4.85-7.4,10.79-7.4,17.69,0,13.94,11.25,24.94,25.14,24.94s25.13-10.94,25.13-24.94c0-6.85-2.5-12.69-7.35-17.64-4.9-4.95-10.84-7.4-17.79-7.4s-12.84,2.45-17.74,7.35Z"/>
  </g>
  <path class="cls-1" d="M184.08,323.58c-79.76,0-144.65-64.89-144.65-144.65S104.32,34.28,184.08,34.28s144.65,64.89,144.65,144.65-64.89,144.65-144.65,144.65ZM184.08,35.86c-78.89,0-143.07,64.18-143.07,143.07s64.18,143.07,143.07,143.07,143.07-64.18,143.07-143.07S262.97,35.86,184.08,35.86Z"/>
  <g>
    <path class="cls-1" d="M82.63,114.1l-1.28,2.88c-1.27-.62-2.25-.36-2.72.44-.54.92-.24,1.77.77,2.36,1.01.59,2.26.43,4.15-.27,4.62-1.75,6.43-1.28,7.9-.42,2.66,1.55,3.22,4.22,1.61,6.96-1.39,2.38-4.22,3.06-7.07,1.58l1.19-2.93c1.76.88,2.95.68,3.5-.26.56-.96.42-1.93-.56-2.51-1.12-.66-2.52-.52-4.34.17-3.51,1.33-5.61,1.76-7.92.41-2.63-1.54-3.18-4.01-1.56-6.78,1.3-2.22,3.63-2.79,6.32-1.62Z"/>
    <path class="cls-1" d="M86.65,100.99l2.3,1.7-1.89,2.56,13.1,9.69-1.96,2.65-13.1-9.69-1.89,2.56-2.3-1.7,5.74-7.76Z"/>
    <path class="cls-1" d="M92.68,94.15c2.44-2.62,4.89-2.87,7.84-.13,1.82,1.7,2.48,3.33,1.96,4.98l8.24,3.88-2.28,2.44-7.39-3.7c-.25.35-.59.75-1.1,1.3l5.74,5.35-2.24,2.41-14.01-13.06,3.24-3.47ZM97.97,101.08l.85-.91c1.19-1.28,1.09-2.22-.54-3.73-1.63-1.52-2.53-1.6-3.85-.18l-.76.81,4.31,4.02Z"/>
    <path class="cls-1" d="M105.3,82.29l15.05,12.36-2.43,2.05-3.18-2.87-2.76,2.33,2.29,3.62-2.43,2.05-9.66-16.91,3.12-2.63ZM106.18,86.54l4.31,7.12,2.03-1.71-6.3-5.45-.04.03Z"/>
    <path class="cls-1" d="M117.06,73.69l1.63,2.35-2.62,1.81,9.28,13.38-2.7,1.87-9.28-13.38-2.62,1.81-1.63-2.35,7.93-5.5Z"/>
    <path class="cls-1" d="M128.44,67.25l1.37,2.52-4.85,2.64,2.36,4.33,3.73-2.03,1.37,2.52-3.73,2.03,2.69,4.94,5.17-2.82,1.37,2.52-8.06,4.4-9.17-16.82,7.73-4.22Z"/>
    <path class="cls-1" d="M144.31,65.84l.48,1.21-2.91,1.15-.04-.1c-.88-2.22-1.66-3.11-3.04-2.56-.96.38-1.04,1.33-.61,2.41l3.69,9.3c.39.99,1.03,1.67,2.14,1.23,1.28-.51,1.35-1.48.74-3.03l-.72-1.82-1.95.77-.96-2.42,5-1.99,3.58,9.02-1.48.59-1.09-1.11c-.55,1.64-1.17,2.29-2.43,2.79-2.61,1.04-4.88-.29-5.89-2.83l-3.71-9.35c-1-2.52-.2-5.11,2.71-6.27,2.96-1.17,5.44.33,6.49,2.99Z"/>
    <path class="cls-1" d="M151.63,58.52l5.22,18.43-3.16.9-5.22-18.43,3.17-.9Z"/>
    <path class="cls-1" d="M167.97,60.17l.25,1.44-3.24.57-.25-1.44c-.25-1.41-.98-2.2-1.97-2.02-1.23.22-1.62.9-1.37,2.29l1.72,9.74c.24,1.38.85,1.92,2.08,1.71,1.28-.23,1.42-1.11,1.24-2.1l-.42-2.35,3.24-.57.4,2.25c.47,2.66-.86,5.05-3.97,5.6-3.26.58-5.33-1.19-5.8-3.88l-1.74-9.87c-.48-2.74.91-5.06,4.12-5.63,3-.53,5.18,1.27,5.71,4.27Z"/>
    <path class="cls-1" d="M187.16,54.31l3.21,19.21-3.18-.05-.51-4.25-3.61-.06-.65,4.23-3.18-.05,3.84-19.09,4.08.07ZM185.03,58.09l-1.43,8.2,2.65.04-1.16-8.24h-.05Z"/>
    <path class="cls-1" d="M204.16,60.78l-.18,1.45-3.26-.41.18-1.45c.18-1.42-.28-2.39-1.29-2.52-1.24-.16-1.81.38-1.99,1.78l-1.25,9.81c-.18,1.39.24,2.09,1.48,2.25,1.29.16,1.69-.64,1.81-1.64l.3-2.37,3.26.41-.29,2.26c-.34,2.68-2.32,4.57-5.45,4.17-3.29-.42-4.74-2.71-4.39-5.42l1.26-9.95c.35-2.76,2.37-4.56,5.61-4.15,3.03.38,4.57,2.75,4.19,5.77Z"/>
    <path class="cls-1" d="M218.99,64.27l-.37,1.41-3.18-.83.37-1.41c.36-1.39.02-2.41-.95-2.66-1.21-.31-1.85.15-2.2,1.51l-2.49,9.57c-.35,1.36-.03,2.1,1.18,2.42,1.26.33,1.75-.42,2.01-1.4l.6-2.31,3.18.83-.57,2.21c-.68,2.62-2.88,4.24-5.94,3.45-3.21-.83-4.35-3.29-3.66-5.94l2.52-9.7c.7-2.7,2.93-4.23,6.09-3.41,2.95.77,4.18,3.31,3.42,6.26Z"/>
    <path class="cls-1" d="M233.48,69.3l-3.73,9.31c-1.01,2.51-3.37,3.85-6.48,2.6-3.08-1.23-3.9-3.82-2.88-6.36l3.72-9.28c1.04-2.59,3.43-3.85,6.49-2.63,3.03,1.21,3.92,3.77,2.88,6.36ZM223.47,76.01c-.52,1.31-.29,2.08.86,2.55,1.28.51,1.92-.09,2.39-1.24l3.68-9.16c.41-1.03.51-1.99-.86-2.55-1.08-.43-1.82-.16-2.38,1.22l-3.68,9.19Z"/>
    <path class="cls-1" d="M243.22,69.15l-7.09,12.69c-.62,1.11-.5,2.03.55,2.61,1.04.58,1.89.2,2.51-.91l7.09-12.69,2.87,1.6-7.03,12.6c-1.44,2.57-3.96,3.5-6.83,1.9-2.8-1.56-3.46-4.15-1.97-6.81l7.03-12.6,2.87,1.6Z"/>
    <path class="cls-1" d="M256.44,77.38l-3.28,11.2.04.03,6.51-8.82,2.39,1.76-11.38,15.41-2.31-1.7,3.73-12.12-.04-.03-7.11,9.63-2.39-1.76,11.38-15.41,2.46,1.81Z"/>
    <path class="cls-1" d="M272.5,90.92l-1.95,2.1-2.33-2.17-11.1,11.92-2.41-2.24,11.1-11.92-2.33-2.17,1.95-2.1,7.07,6.58Z"/>
    <path class="cls-1" d="M278.13,103.79l-2.31-2.14c.99-1,1.06-2.01.46-2.71-.7-.8-1.6-.79-2.48-.03-.88.76-1.14,2.01-1.08,4.02.18,4.94-.86,6.5-2.14,7.61-2.32,2.02-5.03,1.69-7.11-.71-1.81-2.08-1.55-4.98.77-7.2l2.39,2.07c-1.4,1.39-1.59,2.58-.88,3.4.73.84,1.69,1.02,2.56.28.98-.85,1.3-2.22,1.23-4.16-.13-3.75.13-5.87,2.16-7.63,2.3-2,4.82-1.73,6.93.7,1.69,1.94,1.48,4.33-.5,6.51Z"/>
    <path class="cls-1" d="M290.29,120.95c-2.11,1.22-4.52.51-6.67.07-.84,1.25-1.61,2.62-2.17,4.02,1.26-.21,2.47-.39,3.66-.78l.74,2.7c-1.7.56-3.5.74-5.24.96-.13.63-.12,1.39.14,2.04l-2.52,1.46c-.67-1.21-.91-2.63-.6-3.94-1.51-.44-2.39-1.22-3.14-2.5-1.41-2.43-.73-4.91,1.56-6.24,1.47-.85,3.56-1.05,5.95-.54,1.49-2.09,2.7-3.32,3.83-3.97,2.34-1.36,4.65-.92,5.97,1.35,1.2,2.06.58,4.17-1.48,5.37ZM277.92,121.14c-.99.57-1.35,1.74-.79,2.7.31.53.62.81,1.24,1.03.53-1.47,1.13-2.86,2.01-4.2-1.26-.06-1.72.05-2.45.47ZM285.03,118.85c1.89.25,2.96.12,3.85-.39,1.24-.72,1.57-1.37,1.17-2.06-.39-.67-1.18-.82-2.28-.18-.87.51-1.73,1.34-2.74,2.63Z"/>
  </g>
  <g>
    <path class="cls-1" d="M86.3,230.58l-1.32.62-1.41-2.97,1.32-.62c1.29-.61,1.86-1.53,1.43-2.44-.53-1.13-1.3-1.32-2.57-.72l-8.94,4.24c-1.27.6-1.63,1.33-1.1,2.46.56,1.17,1.45,1.07,2.36.64l2.16-1.02,1.41,2.97-2.06.98c-2.44,1.16-5.1.51-6.45-2.34-1.42-3-.27-5.45,2.2-6.62l9.06-4.29c2.52-1.19,5.12-.46,6.52,2.49,1.31,2.76.15,5.33-2.61,6.64Z"/>
    <path class="cls-1" d="M94.2,234.26l-12.24,7.83c-1.07.69-1.4,1.56-.75,2.56.64,1.01,1.57,1.07,2.64.39l12.25-7.83,1.77,2.77-12.16,7.78c-2.48,1.59-5.14,1.21-6.92-1.56-1.73-2.7-1.08-5.29,1.48-6.93l12.16-7.78,1.77,2.77Z"/>
    <path class="cls-1" d="M102.33,252.52l-2.26-2.2c1.02-.98,1.11-1.99.52-2.7-.68-.82-1.58-.83-2.48-.09s-1.19,1.98-1.18,4c.05,4.94-1.02,6.48-2.33,7.56-2.37,1.96-5.07,1.57-7.1-.89-1.76-2.13-1.42-5.02.95-7.18l2.34,2.13c-1.43,1.35-1.66,2.54-.96,3.38.71.86,1.67,1.06,2.55.34,1-.83,1.36-2.19,1.34-4.13-.04-3.75.28-5.87,2.35-7.58,2.35-1.94,4.87-1.61,6.91.87,1.64,1.99,1.37,4.37-.66,6.5Z"/>
    <path class="cls-1" d="M113.76,257.74l-2,2.05-2.28-2.23-11.39,11.65-2.35-2.3,11.39-11.65-2.28-2.23,2-2.05,6.91,6.75Z"/>
    <path class="cls-1" d="M120.52,268.96l-6.16,7.91c-1.66,2.13-4.3,2.77-6.94.71-2.62-2.04-2.69-4.75-1.01-6.9l6.14-7.89c1.71-2.2,4.36-2.76,6.96-.74,2.58,2,2.72,4.71,1.01,6.9ZM109.06,272.64c-.86,1.11-.86,1.92.13,2.69,1.09.85,1.87.45,2.63-.54l6.06-7.79c.68-.88,1.04-1.77-.13-2.69-.92-.72-1.71-.66-2.62.52l-6.07,7.81Z"/>
    <path class="cls-1" d="M129.51,269.28l-3.55,10.87.05.03,7.6-8.54,3.75,2.16-9.54,16.61-2.48-1.43,7.46-12.97-.05-.03-10.03,11.49-1.38-.79,4.88-14.45-.05-.03-7.46,12.97-2.48-1.43,9.54-16.61,3.75,2.16Z"/>
    <path class="cls-1" d="M148.38,278.36l-1.08,2.65-5.11-2.09-1.87,4.57,3.93,1.61-1.08,2.65-3.93-1.61-2.13,5.21,5.45,2.23-1.08,2.65-8.5-3.47,7.25-17.73,8.15,3.33Z"/>
    <path class="cls-1" d="M155.89,280.64c3.46.95,4.82,3,3.75,6.89-.66,2.41-1.8,3.74-3.5,4.05l.4,9.1-3.22-.88-.16-8.27c-.42-.06-.94-.18-1.66-.37l-2.07,7.57-3.17-.87,5.06-18.48,4.58,1.25ZM152.21,288.55l1.2.33c1.69.46,2.47-.07,3.06-2.22.59-2.15.24-2.99-1.63-3.5l-1.07-.29-1.56,5.68Z"/>
    <path class="cls-1" d="M175.82,284.12c3.25.25,4.93,2.32,4.64,6.03l-.6,7.83c-.29,3.73-2.26,5.49-5.51,5.24l-4.97-.38,1.47-19.1,4.97.38ZM172.87,300.4l1.11.09c1.88.14,2.44-.61,2.58-2.38l.66-8.57c.14-1.88-.41-2.61-2.18-2.75l-1.11-.09-1.06,13.7Z"/>
    <path class="cls-1" d="M193.05,284.16l.12,2.86-5.51.23.21,4.93,4.24-.18.12,2.86-4.24.18.23,5.62,5.88-.25.12,2.86-9.17.38-.8-19.14,8.8-.37Z"/>
    <path class="cls-1" d="M198.1,283.55l4.41,12.74h.05s.31-13.48.31-13.48l3.2-.5-1,19.55-3.25.51-6.92-18.31,3.2-.5Z"/>
    <path class="cls-1" d="M216.58,279.45l.76,2.76-5.32,1.47,1.31,4.76,4.09-1.13.76,2.76-4.09,1.13,1.49,5.42,5.68-1.57.76,2.76-8.85,2.44-5.09-18.46,8.49-2.34Z"/>
    <path class="cls-1" d="M222.59,277.2l6.01,15.14,4.81-1.91,1.06,2.66-7.87,3.12-7.06-17.8,3.06-1.21Z"/>
    <path class="cls-1" d="M240.47,273.62l4.74,8.83c1.28,2.38.79,5.06-2.16,6.64-2.92,1.57-5.43.54-6.72-1.87l-4.73-8.81c-1.32-2.45-.75-5.11,2.14-6.66,2.87-1.54,5.41-.58,6.72,1.87ZM239.19,285.6c.66,1.24,1.41,1.56,2.51.97,1.22-.65,1.17-1.53.58-2.63l-4.67-8.69c-.53-.98-1.2-1.67-2.51-.97-1.03.55-1.29,1.3-.59,2.6l4.68,8.72Z"/>
    <path class="cls-1" d="M245.05,265.06c3.18-2.26,5.66-2.11,8.03,1.22,2.57,3.61,1.38,5.96-1.48,7.99l-1.25.89,4.56,6.4-2.68,1.91-11.11-15.6,3.93-2.8ZM248.78,272.96l.91-.65c1.75-1.25,2.14-2.11.71-4.12-1.49-2.1-2.44-1.87-4.19-.63l-.84.6,3.42,4.8Z"/>
    <path class="cls-1" d="M254.87,257.21l9.39,6.53.04-.04-6-9.74,3.14-2.97,13.16,13.92-2.08,1.97-10.28-10.87-.04.04,8.12,12.91-1.16,1.09-12.44-8.83-.04.04,10.28,10.87-2.08,1.97-13.16-13.92,3.14-2.97Z"/>
    <path class="cls-1" d="M268.99,241.74l2.23,1.8-3.47,4.29,3.84,3.1,2.67-3.3,2.23,1.8-2.67,3.3,4.37,3.54,3.71-4.58,2.23,1.8-5.77,7.14-14.89-12.05,5.54-6.85Z"/>
    <path class="cls-1" d="M272.47,236.6l11.41,2.43.03-.04-9.28-5.82,1.58-2.52,16.22,10.18-1.52,2.43-12.36-2.81-.03.04,10.14,6.36-1.58,2.52-16.22-10.18,1.62-2.58Z"/>
    <path class="cls-1" d="M281.39,220.07l2.58,1.24-1.37,2.87,14.7,7.03-1.42,2.97-14.7-7.03-1.37,2.87-2.58-1.24,4.17-8.71Z"/>
  </g>
</svg>